<svg xmlns="http://www.w3.org/2000/svg" width="744" height="241" viewBox="0 0 744 241">
  <g id="logob" transform="translate(-319.117 -3909.877)">
    <rect id="_" data-name="#" width="744" height="241" transform="translate(319.117 3909.877)" fill="red" opacity="0"/>
    <g id="logo" transform="translate(0 -22.236)">
      <g id="you" transform="translate(710.117 3982.58)">
        <g id="text" transform="translate(0 3.029)" opacity="0.9">
          <path id="xian1" d="M650.819,615.029s-6.311,26.6-35.75,58.324" transform="translate(-615.069 -615.029)" fill="none" stroke="#fff" stroke-linecap="round" stroke-width="12"/>
          <line id="xian2" y2="109" transform="translate(22.931 28.971)" fill="none" stroke="#fff" stroke-linecap="round" stroke-width="12"/>
          <path id="xian3" d="M700,614.2s1.125,92.163-36.559,137.6" transform="translate(-618.069 -614.197)" fill="none" stroke="#fff" stroke-linecap="round" stroke-width="12"/>
          <line id="xian4" x2="93" transform="translate(44.931 31.971)" fill="none" stroke="#fff" stroke-linecap="round" stroke-width="12"/>
          <path id="xian5" d="M713.587,670v66.538S715.353,753,728.785,753h19.078" transform="translate(-609.932 -615.029)" fill="none" stroke="#fff" stroke-linecap="round" stroke-linejoin="round" stroke-width="12"/>
        </g>
        <circle id="yuan" cx="11" cy="11" r="11" transform="translate(120.931 -2.466)" fill="#2dd300"/>
      </g>
      <g id="mei" transform="translate(914.437 3982.58)" opacity="0.9">
        <line id="xian1-2" data-name="xian1" x2="133" transform="translate(3.979 21.944)" fill="none" stroke="#fff" stroke-linecap="round" stroke-width="12"/>
        <line id="xian2-2" data-name="xian2" x2="108" transform="translate(16.479 46.444)" fill="none" stroke="#fff" stroke-linecap="round" stroke-width="12"/>
        <line id="xian3-2" data-name="xian3" x2="137" transform="translate(1.979 70.944)" fill="none" stroke="#fff" stroke-linecap="round" stroke-width="12"/>
        <line id="xian4-2" data-name="xian4" x2="131" transform="translate(4.979 95.944)" fill="none" stroke="#fff" stroke-linecap="round" stroke-width="12"/>
        <path id="xian5-2" data-name="xian5" d="M684,636.5s2.311,47.191-4.146,72.859-34.117,41.7-66.333,45.62" transform="translate(-613.521 -614.556)" fill="none" stroke="#fff" stroke-linecap="round" stroke-width="12"/>
        <path id="xian6" d="M684.457,711.668S701.2,749.505,754.4,754.406" transform="translate(-613.521 -614.556)" fill="none" stroke="#fff" stroke-linecap="round" stroke-width="12"/>
        <path id="xian7" d="M644.52,609.514a54.043,54.043,0,0,1,12.157,14.941" transform="translate(-608.853 -606.236)" fill="none" stroke="#fff" stroke-linecap="round" stroke-width="12"/>
        <path id="xian8" d="M720.5,609.457s-2.728,6.4-13.545,18.2" transform="translate(-616.457 -606.178)" fill="none" stroke="#fff" stroke-linecap="round" stroke-width="12"/>
      </g>
      <g id="tuxing" transform="translate(319.117 3932.113)">
        <path id="tuxing1" d="M1181.581,1232.706a40.934,40.934,0,0,0-64.474,33.447V1318.1a26.553,26.553,0,0,1-53.106,0v-54.155a94.067,94.067,0,0,1,147.114-77.558A105.028,105.028,0,0,0,1181.581,1232.706Zm-91.028,125.178A26.525,26.525,0,1,1,1064,1384.409,26.539,26.539,0,0,1,1090.553,1357.884Z" transform="translate(-1064 -1170)" fill="#00a8e6"/>
        <path id="tuxing2" d="M1587.711,1388.83a26.555,26.555,0,0,1-52.358,0h-.4c.01-.368.028-.734.028-1.105V1266.153a40.936,40.936,0,0,0-81.872,0v121.572c0,.371.018.737.028,1.105h-.4a26.555,26.555,0,0,1-52.358,0H1400V1263.942a94.043,94.043,0,0,1,188.085,0V1388.83Z" transform="translate(-1276.085 -1170)" fill="#2dd300"/>
      </g>
    </g>
  </g>
</svg>
